<svg width="40" height="40" viewBox="0 0 40 40" fill="none" xmlns="http://www.w3.org/2000/svg">
  <path d="M20 36.6667C29.2048 36.6667 36.6667 29.2048 36.6667 20C36.6667 10.7953 29.2048 3.33334 20 3.33334C10.7953 3.33334 3.33334 10.7953 3.33334 20C3.33334 29.2048 10.7953 36.6667 20 36.6667Z" fill="#0052FF"/>
  <path d="M20.0001 26.6667C16.3181 26.6667 13.3334 23.682 13.3334 20C13.3334 16.318 16.3181 13.3333 20.0001 13.3333C23.3521 13.3333 26.1241 15.7967 26.6001 19H33.3334C32.8241 12.0967 27.0321 6.66666 20.0001 6.66666C12.6361 6.66666 6.66675 12.636 6.66675 20C6.66675 27.364 12.6361 33.3333 20.0001 33.3333C27.0321 33.3333 32.8241 27.9033 33.3334 21H26.6001C26.1241 24.2033 23.3521 26.6667 20.0001 26.6667Z" fill="white"/>
</svg>
