<?xml version="1.0" encoding="UTF-8"?>
<svg width="40" height="40" viewBox="0 0 40 40" fill="none" xmlns="http://www.w3.org/2000/svg">
  <rect width="40" height="40" rx="20" fill="#1A1625"/>
  <path d="M28 14H12C10.8954 14 10 14.8954 10 16V24C10 25.1046 10.8954 26 12 26H28C29.1046 26 30 25.1046 30 24V16C30 14.8954 29.1046 14 28 14Z" stroke="#A58AF8" stroke-width="2" stroke-linecap="round" stroke-linejoin="round"/>
  <path d="M25 20C25 21.1046 25.8954 22 27 22C28.1046 22 29 21.1046 29 20C29 18.8954 28.1046 18 27 18C25.8954 18 25 18.8954 25 20Z" stroke="#A58AF8" stroke-width="2" stroke-linecap="round" stroke-linejoin="round"/>
</svg> 
