<?xml version="1.0" encoding="UTF-8"?>
<svg width="318" height="318" viewBox="0 0 318 318" fill="none" xmlns="http://www.w3.org/2000/svg">
  <path d="M274.1 35.5L174.6 109.4L193 65.8L274.1 35.5Z" fill="#E17726"/>
  <path d="M43.9 35.5L142.9 109.5L125 65.8L43.9 35.5Z" fill="#E27625"/>
  <path d="M236.3 206.6L221.6 247.1L268.5 263.1L284.8 206.7L236.3 206.6Z" fill="#E27625"/>
  <path d="M33.1 206.7L49.3 263.1L96.1 247.1L81.5 206.6L33.1 206.7Z" fill="#E27625"/>
  <path d="M103.6 138.2L88.8 164.1L136.1 166.3L120.4 107.2L103.6 138.2Z" fill="#E27625"/>
  <path d="M214.9 138.2L198 107.2L182.2 166.3L229.6 164.1L214.9 138.2Z" fill="#E27625"/>
  <path d="M106.8 247.1L129.1 238.1L110.8 222.3L106.8 247.1Z" fill="#E27625"/>
  <path d="M188.5 238.1L210.8 247.1L206.8 222.3L188.5 238.1Z" fill="#E27625"/>
  <path d="M210.8 247.1L188.5 238.1L190.4 254.3L190.1 262.9L210.8 247.1Z" fill="#D5BFB2"/>
  <path d="M106.8 247.1L127.5 262.9L127.3 254.3L129.1 238.1L106.8 247.1Z" fill="#D5BFB2"/>
  <path d="M127.5 193.5L110.8 188.3L120.3 181.3L127.5 193.5Z" fill="#233447"/>
  <path d="M190.9 193.5L198.1 181.3L207.6 188.3L190.9 193.5Z" fill="#233447"/>
  <path d="M106.8 247.1L111.2 206.6L81.4 206.7L106.8 247.1Z" fill="#CC6228"/>
  <path d="M206.3 206.6L210.8 247.1L236.3 206.7L206.3 206.6Z" fill="#CC6228"/>
  <path d="M229.6 164.1L182.2 166.3L190.9 193.5L198.1 181.3L207.6 188.3L229.6 164.1Z" fill="#CC6228"/>
  <path d="M110.8 188.3L120.3 181.3L127.5 193.5L136.1 166.3L88.8 164.1L110.8 188.3Z" fill="#CC6228"/>
  <path d="M88.8 164.1L110.8 222.3L110.8 188.3L88.8 164.1Z" fill="#E27525"/>
  <path d="M207.6 188.3L207.6 222.3L229.6 164.1L207.6 188.3Z" fill="#E27525"/>
  <path d="M136.1 166.3L127.5 193.5L129.1 238.1L110.8 222.3L88.8 164.1L136.1 166.3Z" fill="#F5841F"/>
  <path d="M182.2 166.3L229.6 164.1L207.6 222.3L188.5 238.1L190.1 193.5L182.2 166.3Z" fill="#F5841F"/>
  <path d="M190.1 193.5L188.5 238.1L210.8 247.1L207.6 222.3L229.6 164.1L190.1 193.5Z" fill="#C0AC9D"/>
  <path d="M110.8 193.5L88.8 164.1L111.2 222.3L129.1 238.1L127.5 193.5L110.8 193.5Z" fill="#C0AC9D"/>
  <path d="M127.3 254.3L127.5 262.9L106.8 247.1L127.3 254.3Z" fill="#161616"/>
  <path d="M190.1 254.3L210.8 247.1L190.4 262.9L190.1 254.3Z" fill="#161616"/>
  <path d="M210.8 247.1L190.1 254.3L190.4 262.9L210.8 247.1Z" fill="#763E1A"/>
  <path d="M106.8 247.1L127.3 254.3L127.5 262.9L106.8 247.1Z" fill="#763E1A"/>
  <path d="M236.3 206.7L284.8 206.7L274.1 35.5L236.3 206.7Z" fill="#F5841F"/>
  <path d="M81.5 206.7L33.1 206.7L43.9 35.5L81.5 206.7Z" fill="#F5841F"/>
  <path d="M193 65.8L174.6 109.4L274.1 35.5L193 65.8Z" fill="#F5841F"/>
  <path d="M125 65.8L43.9 35.5L142.9 109.4L125 65.8Z" fill="#F5841F"/>
  <path d="M88.8 164.1L110.8 222.3L81.4 206.7L88.8 164.1Z" fill="#F5841F"/>
  <path d="M229.6 164.1L236.3 206.7L207.6 222.3L229.6 164.1Z" fill="#F5841F"/>
  <path d="M136.1 166.3L110.8 188.3L88.8 164.1L136.1 166.3Z" fill="#F5841F"/>
  <path d="M182.2 166.3L229.6 164.1L207.6 188.3L182.2 166.3Z" fill="#F5841F"/>
</svg>
