<?xml version="1.0" encoding="UTF-8"?>
<svg width="40" height="40" viewBox="0 0 40 40" fill="none" xmlns="http://www.w3.org/2000/svg">
  <rect width="40" height="40" rx="8" fill="#2980F9"/>
  <path d="M28.5 15.5H11.5C10.3954 15.5 9.5 16.3954 9.5 17.5V22.5C9.5 23.6046 10.3954 24.5 11.5 24.5H28.5C29.6046 24.5 30.5 23.6046 30.5 22.5V17.5C30.5 16.3954 29.6046 15.5 28.5 15.5Z" fill="white"/>
  <path d="M20 20C21.1046 20 22 19.1046 22 18C22 16.8954 21.1046 16 20 16C18.8954 16 18 16.8954 18 18C18 19.1046 18.8954 20 20 20Z" fill="#2980F9"/>
  <path d="M25 20C26.1046 20 27 19.1046 27 18C27 16.8954 26.1046 16 25 16C23.8954 16 23 16.8954 23 18C23 19.1046 23.8954 20 25 20Z" fill="#2980F9"/>
  <path d="M15 20C16.1046 20 17 19.1046 17 18C17 16.8954 16.1046 16 15 16C13.8954 16 13 16.8954 13 18C13 19.1046 13.8954 20 15 20Z" fill="#2980F9"/>
</svg> 
