<?xml version="1.0" encoding="UTF-8"?>
<svg width="300" height="185" viewBox="0 0 300 185" fill="none" xmlns="http://www.w3.org/2000/svg">
  <path d="M61.4 0C27.5 0 0 27.5 0 61.4C0 95.3 27.5 122.8 61.4 122.8C95.3 122.8 122.8 95.3 122.8 61.4C122.8 27.5 95.3 0 61.4 0ZM61.4 112.8C33.5 112.8 10 89.3 10 61.4C10 33.5 33.5 10 61.4 10C89.3 10 112.8 33.5 112.8 61.4C112.8 89.3 89.3 112.8 61.4 112.8Z" fill="#3B99FC"/>
  <path d="M238.6 0C204.7 0 177.2 27.5 177.2 61.4C177.2 95.3 204.7 122.8 238.6 122.8C272.5 122.8 300 95.3 300 61.4C300 27.5 272.5 0 238.6 0ZM238.6 112.8C210.7 112.8 187.2 89.3 187.2 61.4C187.2 33.5 210.7 10 238.6 10C266.5 10 290 33.5 290 61.4C290 89.3 266.5 112.8 238.6 112.8Z" fill="#3B99FC"/>
  <path d="M150 61.4C150 95.3 122.5 122.8 88.6 122.8C54.7 122.8 27.2 95.3 27.2 61.4C27.2 27.5 54.7 0 88.6 0C122.5 0 150 27.5 150 61.4ZM40 61.4C40 89.3 60.7 112.8 88.6 112.8C116.5 112.8 137.2 89.3 137.2 61.4C137.2 33.5 116.5 10 88.6 10C60.7 10 40 33.5 40 61.4Z" fill="#3B99FC"/>
  <path d="M272.8 61.4C272.8 95.3 245.3 122.8 211.4 122.8C177.5 122.8 150 95.3 150 61.4C150 27.5 177.5 0 211.4 0C245.3 0 272.8 27.5 272.8 61.4ZM162.8 61.4C162.8 89.3 183.5 112.8 211.4 112.8C239.3 112.8 260 89.3 260 61.4C260 33.5 239.3 10 211.4 10C183.5 10 162.8 33.5 162.8 61.4Z" fill="#3B99FC"/>
  <path d="M211.4 0H88.6C54.7 0 27.2 27.5 27.2 61.4C27.2 95.3 54.7 122.8 88.6 122.8H211.4C245.3 122.8 272.8 95.3 272.8 61.4C272.8 27.5 245.3 0 211.4 0ZM211.4 112.8H88.6C60.7 112.8 40 89.3 40 61.4C40 33.5 60.7 10 88.6 10H211.4C239.3 10 260 33.5 260 61.4C260 89.3 239.3 112.8 211.4 112.8Z" fill="#3B99FC"/>
</svg>
